<svg width="24" height="24" viewBox="0 0 24 24">
  <path fill-rule="evenodd" d="M9.6,11.5c0.5,0,2.1-0.9,2.1-3c0-3.3-2.9-3.9-6.2-3.9c-0.6,0-2.5,0-3.9,0C0.7,4.5,0,5.3,0,6.1v11.7
		c0,0.9,0.7,1.6,1.6,1.6h6.3c2.4,0,4.4-1.9,4.4-4.2C12.3,12,9.6,11.5,9.6,11.5z M3.2,7.2h3.7c0.9,0,1.6,0.7,1.6,1.6
		s-0.7,1.6-1.6,1.6H3.2V7.2z M7.2,16.8h-4v-3.7h4c1,0,1.9,0.8,1.9,1.9S8.2,16.8,7.2,16.8z M23.2,14.7c0.4,0,0.8-0.4,0.8-0.8l0,0
		c0-3.1-2.1-5.6-5.3-5.6c-2.9,0-5.3,2.5-5.3,5.6s2.4,5.6,5.3,5.6c2.6,0,4.1-1.2,4.8-3c0.1-0.3-0.1-0.7-0.5-0.7h-1.3
		c-0.2,0-0.4,0.1-0.5,0.3c-0.5,0.8-1.2,1.3-2.2,1.3c-1.5,0-2.6-1.1-2.9-2.7h5.7H23.2z M18.7,10.4c1.1,0,2.2,0.9,2.5,2.1h-4.9
		C16.6,11.3,17.6,10.4,18.7,10.4z M21.1,7.2h-4.3c-0.4,0-0.8-0.4-0.8-0.8l0,0c0-0.4,0.4-0.8,0.8-0.8h4.3c0.4,0,0.8,0.4,0.8,0.8l0,0
		C21.9,6.8,21.5,7.2,21.1,7.2z"/>
</svg>
