<?xml version="1.0" encoding="utf-8"?>
<!-- Generator: Adobe Illustrator 26.0.1, SVG Export Plug-In . SVG Version: 6.00 Build 0)  -->
<svg version="1.1" id="图层_1" xmlns="http://www.w3.org/2000/svg" xmlns:xlink="http://www.w3.org/1999/xlink" x="0px" y="0px"
	 viewBox="0 0 45 29" style="enable-background:new 0 0 45 29;" xml:space="preserve">
<style type="text/css">
	.st0{fill:#FFFFFF;}
</style>
<g>
	<path class="st0" d="M17.7,0.3l4.2,5.4c0.3,0.4,1,0.4,1.3,0L27,0.6c0.2-0.3,0.7-0.4,1-0.2l5.7,2.9c0.4,0.2,0.6,0.8,0.3,1.2l-6,8.1
		c-0.2,0.3-0.2,0.7,0,1l7.5,9.8c0.3,0.4,0.2,0.9-0.2,1.2L29,28.9c-0.4,0.3-0.9,0.2-1.1-0.2l-5.1-7.2c-0.3-0.4-1-0.5-1.3,0L16,28.7
		c-0.3,0.4-0.8,0.4-1.1,0.2l-5.2-3.6c-0.4-0.3-0.5-0.8-0.2-1.2l7.3-9.8c0.2-0.3,0.2-0.7,0-1l-6.4-9c-0.3-0.4-0.1-1,0.3-1.2l6-3
		C17.1-0.1,17.5,0,17.7,0.3z"/>
</g>
</svg>
